<svg aria-hidden="true" style="width:0;height:0;position:absolute;overflow:hidden" xmlns="http://www.w3.org/2000/svg"><defs><symbol id="icon-Group" viewBox="0 0 43 32"><path fill="gold" style="fill:var(--color1,gold)" d="M42.443.523H.324v31.344h42.119V.523z"/><path fill="#0057b7" style="fill:var(--color2,#0057b7)" d="M.324.523h42.119v15.672H.324V.523z"/></symbol><symbol id="icon-Mastercard" viewBox="0 0 49 32"><path fill="#fafafa" style="fill:var(--color3,#fafafa)" d="M6.095.762h36.571a5.333 5.333 0 0 1 5.333 5.333v19.81a5.333 5.333 0 0 1-5.333 5.333H6.095a5.333 5.333 0 0 1-5.333-5.333V6.095A5.333 5.333 0 0 1 6.095.762z"/><path fill="none" stroke="#fafafa" style="stroke:var(--color3,#fafafa)" stroke-width="1.524" d="M6.095.762h36.571a5.333 5.333 0 0 1 5.333 5.333v19.81a5.333 5.333 0 0 1-5.333 5.333H6.095a5.333 5.333 0 0 1-5.333-5.333V6.095A5.333 5.333 0 0 1 6.095.762z"/><path fill="#ed0006" style="fill:var(--color4,#ed0006)" d="M24.381 23.29a10.302 10.302 0 0 1-6.578 2.345c-5.601 0-10.141-4.396-10.141-9.818s4.54-9.818 10.141-9.818c2.51 0 4.807.883 6.578 2.345a10.302 10.302 0 0 1 6.578-2.345c5.601 0 10.141 4.395 10.141 9.818s-4.54 9.818-10.141 9.818c-2.51 0-4.807-.883-6.578-2.345z"/><path fill="#f9a000" style="fill:var(--color5,#f9a000)" d="M24.381 23.29c2.18-1.801 3.563-4.48 3.563-7.472s-1.383-5.672-3.563-7.472a10.302 10.302 0 0 1 6.578-2.345c5.601 0 10.141 4.395 10.141 9.818s-4.54 9.818-10.141 9.818c-2.51 0-4.807-.883-6.578-2.345z"/><path fill="#ff5e00" style="fill:var(--color6,#ff5e00)" d="M24.381 23.29c2.18-1.801 3.563-4.48 3.563-7.472s-1.383-5.671-3.563-7.472c-2.18 1.801-3.563 4.48-3.563 7.472s1.383 5.672 3.563 7.472z"/></symbol><symbol id="icon-x-close" viewBox="0 0 32 32"><path stroke-linejoin="round" stroke-linecap="round" stroke-width="2.667" d="M24 8 8 24M8 8l16 16"/></symbol></defs></svg>